<?xml version="1.0" encoding="UTF-8" standalone="no"?>
<svg
   xmlns:dc="http://purl.org/dc/elements/1.1/"
   xmlns:cc="http://creativecommons.org/ns#"
   xmlns:rdf="http://www.w3.org/1999/02/22-rdf-syntax-ns#"
   xmlns:svg="http://www.w3.org/2000/svg"
   xmlns="http://www.w3.org/2000/svg"
   xmlns:sodipodi="http://sodipodi.sourceforge.net/DTD/sodipodi-0.dtd"
   xmlns:inkscape="http://www.inkscape.org/namespaces/inkscape"
   width="210mm"
   height="297mm"
   viewBox="0 0 210 297"
   version="1.1"
   id="svg861"
   inkscape:version="1.0.2 (e86c8708, 2021-01-15)"
   sodipodi:docname="flexure-hinge-types-arrows.svg">
  <defs
     id="defs855">
    <marker
       style="overflow:visible;"
       id="Arrow1Send"
       refX="0.0"
       refY="0.0"
       orient="auto"
       inkscape:stockid="Arrow1Send"
       inkscape:isstock="true">
      <path
         transform="scale(0.2) rotate(180) translate(6,0)"
         style="fill-rule:evenodd;stroke:#000000;stroke-width:1pt;stroke-opacity:1;fill:#000000;fill-opacity:1"
         d="M 0.0,0.0 L 5.0,-5.0 L -12.5,0.0 L 5.0,5.0 L 0.0,0.0 z "
         id="path952" />
    </marker>
    <marker
       style="overflow:visible"
       id="marker1683"
       refX="0.0"
       refY="0.0"
       orient="auto"
       inkscape:stockid="Arrow2Sstart"
       inkscape:isstock="true">
      <path
         transform="scale(0.3) translate(-2.3,0)"
         d="M 8.7185878,4.0337352 L -2.2072895,0.016013256 L 8.7185884,-4.0017078 C 6.9730900,-1.6296469 6.9831476,1.6157441 8.7185878,4.0337352 z "
         style="fill-rule:evenodd;stroke-width:0.625;stroke-linejoin:round;stroke:#000000;stroke-opacity:1;fill:#000000;fill-opacity:1"
         id="path1681" />
    </marker>
    <marker
       style="overflow:visible"
       id="marker1323"
       refX="0.0"
       refY="0.0"
       orient="auto"
       inkscape:stockid="Arrow2Sstart"
       inkscape:isstock="true"
       inkscape:collect="always">
      <path
         transform="scale(0.3) translate(-2.3,0)"
         d="M 8.7185878,4.0337352 L -2.2072895,0.016013256 L 8.7185884,-4.0017078 C 6.9730900,-1.6296469 6.9831476,1.6157441 8.7185878,4.0337352 z "
         style="fill-rule:evenodd;stroke-width:0.625;stroke-linejoin:round;stroke:#000000;stroke-opacity:1;fill:#000000;fill-opacity:1"
         id="path1321" />
    </marker>
    <marker
       style="overflow:visible"
       id="Arrow2Sstart"
       refX="0.0"
       refY="0.0"
       orient="auto"
       inkscape:stockid="Arrow2Sstart"
       inkscape:isstock="true"
       inkscape:collect="always">
      <path
         transform="scale(0.3) translate(-2.3,0)"
         d="M 8.7185878,4.0337352 L -2.2072895,0.016013256 L 8.7185884,-4.0017078 C 6.9730900,-1.6296469 6.9831476,1.6157441 8.7185878,4.0337352 z "
         style="fill-rule:evenodd;stroke-width:0.625;stroke-linejoin:round;stroke:#000000;stroke-opacity:1;fill:#000000;fill-opacity:1"
         id="path967" />
    </marker>
    <marker
       style="overflow:visible"
       id="Arrow1Sstart"
       refX="0.0"
       refY="0.0"
       orient="auto"
       inkscape:stockid="Arrow1Sstart"
       inkscape:isstock="true">
      <path
         transform="scale(0.2) translate(6,0)"
         style="fill-rule:evenodd;stroke:#000000;stroke-width:1pt;stroke-opacity:1;fill:#000000;fill-opacity:1"
         d="M 0.0,0.0 L 5.0,-5.0 L -12.5,0.0 L 5.0,5.0 L 0.0,0.0 z "
         id="path949" />
    </marker>
    <marker
       style="overflow:visible"
       id="Arrow2Sstart-7"
       refX="0"
       refY="0"
       orient="auto"
       inkscape:stockid="Arrow2Sstart"
       inkscape:isstock="true"
       inkscape:collect="always">
      <path
         transform="matrix(0.3,0,0,0.3,-0.69,0)"
         d="M 8.7185878,4.0337352 -2.2072895,0.01601326 8.7185884,-4.0017078 c -1.7454984,2.3720609 -1.7354408,5.6174519 -6e-7,8.035443 z"
         style="fill:#000000;fill-opacity:1;fill-rule:evenodd;stroke:#000000;stroke-width:0.625;stroke-linejoin:round;stroke-opacity:1"
         id="path967-0" />
    </marker>
  </defs>
  <sodipodi:namedview
     id="base"
     pagecolor="#ffffff"
     bordercolor="#666666"
     borderopacity="1.0"
     inkscape:pageopacity="0.0"
     inkscape:pageshadow="2"
     inkscape:zoom="1.0620449"
     inkscape:cx="358.18952"
     inkscape:cy="431.59367"
     inkscape:document-units="mm"
     inkscape:current-layer="layer1"
     inkscape:document-rotation="0"
     showgrid="false"
     inkscape:window-width="1810"
     inkscape:window-height="943"
     inkscape:window-x="99"
     inkscape:window-y="25"
     inkscape:window-maximized="0"
     inkscape:snap-global="false" />
  <metadata
     id="metadata858">
    <rdf:RDF>
      <cc:Work
         rdf:about="">
        <dc:format>image/svg+xml</dc:format>
        <dc:type
           rdf:resource="http://purl.org/dc/dcmitype/StillImage" />
        <dc:title></dc:title>
      </cc:Work>
    </rdf:RDF>
  </metadata>
  <g
     inkscape:label="Layer 1"
     inkscape:groupmode="layer"
     id="layer1">
    <path
       style="fill:none;stroke:#000000;stroke-width:0.529167;stroke-linecap:butt;stroke-linejoin:miter;stroke-miterlimit:4;stroke-dasharray:none;stroke-opacity:1;marker-start:url(#Arrow2Sstart-7)"
       d="m 36.455975,133.88567 2.712038,9.11522"
       id="path935-3"
       sodipodi:nodetypes="cc" />
    <path
       style="fill:#000000;stroke-width:0.264583"
       d="m 19.746468,154.96466 -4.622872,-3.44042 -1.143064,-3.07434 -1.143063,-3.07434 0.886191,-0.94872 c 0.487406,-0.52179 2.826684,-2.99914 5.198398,-5.50521 l 4.312205,-4.5565 0.82593,0.4271 c 1.030276,0.53278 3.187634,0.54671 4.410189,0.0285 1.112805,-0.4717 2.608126,-1.94816 2.817363,-2.78183 0.08611,-0.34307 -0.164236,-1.50837 -0.581637,-2.70742 l -0.73281,-2.10511 3.680313,-3.87183 c 2.024172,-2.12951 4.322671,-4.58093 5.107776,-5.44759 0.785104,-0.86667 1.572049,-1.52028 1.748764,-1.45247 0.483728,0.18563 9.002522,6.44323 9.308288,6.83754 0.314844,0.40602 2.19986,5.53774 2.19986,5.98885 0,0.1717 -2.331818,2.7505 -5.181817,5.73067 -4.769924,4.98778 -5.226857,5.39438 -5.748462,5.11522 -1.873185,-1.00249 -4.424269,-0.68932 -6.002961,0.73693 -1.64436,1.48558 -1.745257,2.039 -0.813092,4.4598 l 0.798704,2.0742 -1.7631,1.87668 c -5.520614,5.87626 -8.672266,9.15143 -8.796947,9.14172 -0.07771,-0.006 -2.221576,-1.55918 -4.764156,-3.45142 z m 12.338183,-4.93227 2.525634,-2.70616 -1.015605,-2.80079 -1.015605,-2.8008 -1.577208,1.67049 c -0.867465,0.91877 -2.595592,2.74563 -3.840284,4.05968 -1.244691,1.31405 -2.772416,2.92929 -3.394942,3.58942 l -1.131867,1.20023 0.999575,2.8598 0.999575,2.8598 2.462547,-2.61276 c 1.3544,-1.43702 3.599081,-3.83053 4.98818,-5.31891 z m -8.894757,5.02653 c -0.460888,-1.28844 -0.919838,-2.47036 -1.01989,-2.62649 -0.156193,-0.24372 -7.577912,-5.75917 -8.417411,-6.25539 -0.1639,-0.0969 0.140875,1.01934 0.677276,2.48048 l 0.975274,2.65662 4.217515,3.11545 c 2.319634,1.7135 4.259748,3.08317 4.311364,3.0437 0.05162,-0.0395 -0.283241,-1.12593 -0.744128,-2.41437 z m 2.512424,-6.6111 c 1.740717,-1.85058 3.917702,-4.16615 4.837745,-5.14571 l 1.672806,-1.78104 -0.713081,-1.21678 c -0.592378,-1.01081 -0.691597,-1.44035 -0.586164,-2.53763 0.305238,-3.17667 4.103294,-5.45713 7.282953,-4.37289 l 1.254013,0.42761 4.435002,-4.56434 c 2.439252,-2.51039 4.670763,-4.8791 4.958918,-5.26381 l 0.523915,-0.69946 -4.355616,-3.20314 c -2.39559,-1.76173 -4.468997,-3.20314 -4.60757,-3.20314 -0.138576,0 -0.648187,0.46055 -1.132469,1.02345 -0.484282,0.56289 -2.647639,2.88061 -4.80746,5.15049 l -3.926946,4.12704 0.569736,0.80012 c 1.248651,1.75357 1.026769,3.99011 -0.567428,5.71961 -1.759785,1.90914 -4.370324,2.41643 -6.853223,1.33173 -0.307709,-0.13442 -1.717842,1.18648 -5.369146,5.02943 -2.723511,2.86645 -4.85744,5.30333 -4.742066,5.4153 0.650089,0.63089 8.456931,6.30842 8.686497,6.31726 0.151054,0.006 1.698867,-1.50353 3.439584,-3.3541 z m 9.152622,-7.93363 c 1.368224,-1.25724 3.970556,-1.77715 5.666959,-1.13217 0.547066,0.20799 0.680842,0.19289 0.586034,-0.0661 -0.06757,-0.18461 -0.510937,-1.42797 -0.985266,-2.76299 -0.711613,-2.00287 -0.988849,-2.47969 -1.585445,-2.72681 -1.08312,-0.44864 -3.27178,-0.3803 -4.360112,0.13615 -1.939941,0.92056 -3.385758,3.38174 -2.915742,4.96341 0.09541,0.32106 0.607796,1.24851 1.138638,2.06101 l 0.965168,1.47726 0.427822,-0.68351 c 0.235302,-0.37593 0.713177,-0.94572 1.061944,-1.2662 z m 12.112251,-6.14628 4.78585,-5.00722 -0.96892,-2.73087 c -0.532908,-1.50198 -0.995075,-2.76655 -1.027039,-2.81016 -0.05276,-0.072 -1.745594,1.65797 -7.921908,8.09555 l -2.11333,2.20273 0.761738,2.16655 c 1.177271,3.34842 1.19975,3.39843 1.456367,3.23983 0.132765,-0.082 2.395024,-2.40245 5.027242,-5.15641 z m -15.467183,-4.87064 c -0.09412,-0.375 -0.332325,-0.81561 -0.529345,-0.97912 -0.271514,-0.22534 -0.255247,-0.0352 0.06721,0.78574 0.461715,1.17542 0.737581,1.29085 0.462133,0.19338 z m 31.945372,25.21441 -5.077082,-3.72617 v -3.31356 -3.31357 l 4.006647,-4.20147 4.006643,-4.20149 0.730554,0.5202 c 0.401805,0.28611 0.851115,0.5202 0.998472,0.5202 0.147354,0 2.301343,-2.11336 4.786633,-4.69635 l 4.51873,-4.69636 0.001,-1.50265 10e-4,-1.50266 4.03933,-4.15589 4.039329,-4.1559 5.0888,3.66182 5.08879,3.66183 -0.003,3.45193 -0.003,3.45194 -3.85582,4.0349 c -2.12069,2.21919 -3.99451,4.03226 -4.16403,4.02902 -0.16952,-0.003 -0.60588,-0.24121 -0.96968,-0.52881 l -0.66146,-0.52292 -4.684309,4.82829 -4.68431,4.82828 -0.012,1.55977 -0.012,1.55977 -3.902607,3.99648 c -2.146432,2.19807 -3.969404,4.02867 -4.051043,4.06801 -0.08164,0.0393 -2.433127,-1.60525 -5.225521,-3.65464 z m 4.97395,-0.0549 -0.0031,-2.97656 -1.38593,-0.97688 c -0.76226,-0.53729 -2.869253,-2.04703 -4.682204,-3.35498 -1.812955,-1.30796 -3.379918,-2.32641 -3.482139,-2.26323 -0.102225,0.0632 -0.166712,1.3881 -0.143307,2.94427 l 0.04255,2.8294 4.630209,3.36928 c 2.546614,1.8531 4.719505,3.37737 4.828645,3.38727 0.109141,0.01 0.197028,-1.32146 0.195303,-2.95857 z m 7.962367,-7.44177 c 0.006,-1.57603 -0.0364,-2.91372 -0.0953,-2.97264 -0.0589,-0.0589 -1.73334,1.55532 -3.720927,3.58719 l -3.613798,3.69433 -0.02148,2.32712 c -0.01183,1.27992 -0.04568,2.65813 -0.07523,3.06269 -0.04674,0.63987 0.438637,0.2432 3.730635,-3.0488 l 3.78438,-3.78437 z m -3.865112,0.15265 3.697242,-3.7834 -0.85551,-0.66953 c -1.13613,-0.88916 -8.798003,-6.44806 -8.887403,-6.44806 -0.03848,0 -1.758987,1.77661 -3.823343,3.94804 l -3.753371,3.94803 4.697987,3.45591 c 2.583891,1.90076 4.817049,3.42813 4.96257,3.39416 0.14552,-0.034 1.928344,-1.76429 3.961828,-3.84515 z m 14.592371,-12.34543 c -0.0387,-0.1396 -2.19039,-1.79355 -4.781629,-3.67544 l -4.71135,-3.42163 -4.39832,4.58117 c -2.419072,2.51964 -4.398317,4.70169 -4.398317,4.849 0,0.14731 1.74865,1.52568 3.885885,3.06303 l 3.885882,2.79519 0.0213,1.45521 0.0213,1.45521 5.27276,-5.42396 c 2.899999,-2.98319 5.241099,-5.53819 5.202439,-5.67778 z m 0.36351,2.0471 v -0.98484 l -0.59531,0.60322 c -0.58519,0.59297 -0.58658,0.60971 -0.0817,0.98484 0.68759,0.5109 0.67704,0.5203 0.67704,-0.60322 z m 7.93366,-9.78178 0.004,-2.96141 -3.69694,3.75516 -3.69694,3.75516 -0.0475,1.5875 c -0.0526,1.75675 -0.0507,2.21498 0.0148,3.57187 l 0.0447,0.92604 3.68714,-3.83645 3.68713,-3.83646 0.004,-2.96141 z m -7.93366,6.04399 v -1.28305 l -4.564059,-3.25938 c -2.51024,-1.79266 -4.72026,-3.37911 -4.91117,-3.52544 -0.27762,-0.2128 -0.33059,-0.006 -0.26458,1.03511 l 0.0825,1.30116 4.7625,3.50126 c 2.619369,1.92569 4.792259,3.50399 4.828639,3.50732 0.0364,0.003 0.0662,-0.57131 0.0662,-1.27698 z m 7.22735,-9.83509 c -0.63851,-0.60084 -8.55901,-6.36433 -8.95505,-6.5163 -0.27641,-0.10607 -7.926469,7.5393 -7.735249,7.73051 0.0429,0.043 2.21944,1.6438 4.83666,3.55745 l 4.758579,3.47936 3.78777,-3.89945 c 3.62348,-3.7303 3.76693,-3.91905 3.30729,-4.35157 z m 24.258064,34.65892 c -1.86201,-0.2589 -3.49117,-0.85935 -5.0559,-1.86344 -1.44641,-0.92816 -3.43002,-2.97296 -4.05341,-4.17845 -0.42251,-0.81706 -0.41503,-0.86631 0.26768,-1.76139 0.3863,-0.50646 0.89659,-0.9265 1.13397,-0.93343 0.42325,-0.0123 9.95662,-13.3094 9.95662,-13.8874 0,-0.1536 -1.54781,-2.50265 -3.43958,-5.22012 l -3.43958,-4.94084 -1.64024,-0.008 c -1.50401,-0.007 -1.70717,-0.0795 -2.44617,-0.86796 -0.44327,-0.47294 -0.80649,-0.95751 -0.80716,-1.07681 -0.002,-0.4333 1.55693,-2.46677 2.69881,-3.51932 2.75355,-2.53813 4.927,-3.26078 10.42058,-3.46472 4.50711,-0.16732 5.84848,0.044 8.5726,1.35037 1.77819,0.85276 4.83326,3.59951 5.53376,4.9753 0.33439,0.65674 0.30545,0.78038 -0.37161,1.5875 -0.66373,0.79122 -0.90229,0.88799 -2.48387,1.00758 l -1.74962,0.13229 -3.38664,4.7625 c -1.86265,2.61937 -3.44664,4.89484 -3.51998,5.05658 -0.19088,0.42101 9.37215,13.85543 10.04797,14.11567 0.30955,0.1192 0.84387,0.59993 1.18739,1.0683 0.56296,0.76756 0.58906,0.91962 0.26458,1.54151 -0.19799,0.37947 -1.07436,1.42159 -1.94749,2.31582 -1.68109,1.72174 -4.03232,3.09904 -6.35,3.7197 -1.43051,0.38308 -6.90414,0.43485 -9.39271,0.0888 z m 10.06516,-0.79301 c 2.1139,-0.61616 4.56019,-2.15732 5.90666,-3.72117 1.82667,-2.12157 1.83811,-2.09326 -0.8461,-2.09326 h -2.3554 l -0.65761,0.99372 c -1.45559,2.19955 -5.22948,5.09169 -6.64402,5.09169 -0.22571,0 -0.46873,0.0944 -0.54005,0.20982 -0.23107,0.37388 3.3564,0.0381 5.13652,-0.4808 z m -5.73421,0.13661 c 3.19596,-0.83245 6.30919,-3.01234 7.64009,-5.34962 0.44373,-0.77927 0.4417,-0.83493 -0.0524,-1.43369 l -0.51405,-0.62294 -0.47157,0.66146 c -2.55588,3.5851 -5.80206,5.1961 -10.0237,4.97452 -2.87258,-0.15077 -4.98739,-1.15301 -7.01477,-3.32439 -0.78935,-0.84542 -1.55917,-1.75815 -1.71072,-2.02829 -0.25627,-0.45685 -0.30963,-0.43914 -0.76338,0.25336 -0.47063,0.71828 -0.47107,0.77569 -0.0124,1.62738 0.2615,0.48556 1.09111,1.46511 1.84359,2.17678 3.00499,2.84199 7.33626,4.04037 11.07931,3.06543 z m -1.15595,-2.08933 c 0,-0.0589 -0.63347,-0.46454 -1.40771,-0.9015 -0.77424,-0.43695 -2.18957,-1.63894 -3.14518,-2.67108 -1.74975,-1.8899 -2.48607,-2.24362 -3.10871,-1.4934 -0.17493,0.21079 -0.86954,0.41915 -1.54357,0.46303 l -1.22552,0.0798 1.36546,1.36303 c 1.48892,1.48628 3.52796,2.61647 5.37305,2.97816 1.24151,0.24336 3.69218,0.36416 3.69218,0.18198 z m 3.60006,-1.2583 c 1.26193,-0.63023 3.90926,-3.25864 4.19781,-4.16779 0.0906,-0.28532 0.41124,-0.55607 0.71264,-0.60167 0.47162,-0.0714 0.009,-0.83871 -3.31662,-5.50687 -2.12553,-2.98318 -3.98572,-5.42397 -4.13375,-5.42397 -0.14804,0 -2.00129,2.44079 -4.11835,5.42397 -3.11104,4.38382 -3.75461,5.43892 -3.35596,5.50195 0.27128,0.0429 0.69541,0.42023 0.9425,0.83852 0.77848,1.31787 3.15832,3.44174 4.7449,4.23457 1.69141,0.8452 2.09172,0.81756 4.32683,-0.29871 z m 10.42286,-3.08201 c 0,-0.11771 -0.15092,-0.4204 -0.33537,-0.67266 -0.2823,-0.38607 -0.70192,-0.4464 -2.65187,-0.38129 l -2.31651,0.0773 0.41792,0.59531 c 0.37723,0.53736 0.6354,0.59531 2.65187,0.59531 1.22868,0 2.23396,-0.0963 2.23396,-0.21401 z m -16.78027,-8.25265 c 2.92184,-4.14735 6.87124,-9.74329 8.77644,-12.43543 3.08037,-4.3527 3.4004,-4.90493 2.88965,-4.98629 -0.3159,-0.0503 -0.70676,-0.20009 -0.86858,-0.33282 -0.20056,-0.16451 -1.31803,1.22965 -3.51066,4.37993 -1.76905,2.5417 -5.77407,8.2117 -8.90006,12.60001 -3.12598,4.38831 -5.6836,8.0914 -5.6836,8.2291 0,0.1377 0.44648,0.2134 0.99218,0.16824 0.97696,-0.0809 1.07373,-0.19786 6.30463,-7.62274 z m 14.76244,6.29587 c -0.48322,-0.78188 -8.90079,-12.54832 -9.18851,-12.8441 -0.25539,-0.26256 -0.41342,-0.17489 -0.76861,0.42639 l -0.44711,0.7569 3.59927,5.12987 c 5.21321,7.43015 4.70968,6.84965 5.94145,6.84965 0.75969,0 1.00462,-0.0904 0.86351,-0.31871 z m -11.62803,-15.16631 c 0.43481,-0.66361 0.41527,-0.70021 -2.75553,-5.15938 l -3.19345,-4.49103 h -1.06853 -1.06853 l 1.36231,1.91823 c 0.74927,1.05503 2.38755,3.37675 3.64064,5.15938 1.25308,1.78263 2.36087,3.24114 2.46175,3.24114 0.10088,0 0.38049,-0.30075 0.62134,-0.66834 z m 3.08021,-4.35874 c 1.19214,-1.67349 2.5692,-3.59496 3.06014,-4.26993 l 0.89261,-1.22722 -1.21221,-1.34826 c -0.82295,-0.91533 -1.85188,-1.66441 -3.20429,-2.33281 l -1.99208,-0.98454 -1.72514,0.89444 c -1.97706,1.02506 -4.40851,3.29309 -4.22918,3.94496 0.1727,0.6278 5.83474,8.51407 6.05531,8.43404 0.10303,-0.0374 1.1627,-1.43719 2.35484,-3.11068 z m -11.82825,-5.15938 c 0.10563,-0.27527 0.53524,-0.39687 1.40212,-0.39687 1.16766,0 1.33937,-0.094 2.61226,-1.42932 0.74935,-0.78612 2.03613,-1.80952 2.85952,-2.27421 0.8234,-0.4647 1.49708,-0.91008 1.49708,-0.98974 0,-0.0797 -0.95241,-0.0796 -2.11646,2.2e-4 -3.36673,0.23076 -6.82852,2.18229 -8.28339,4.66962 l -0.47798,0.81718 h 1.17728 c 0.80239,0 1.22577,-0.12638 1.32957,-0.39688 z m 22.02559,-0.0661 c 0.19331,-0.25466 0.35527,-0.55232 0.3599,-0.66146 0.005,-0.10914 -0.96448,-0.19844 -2.15357,-0.19844 -1.64045,0 -2.2787,0.10563 -2.64583,0.43789 -0.26612,0.24083 -0.48386,0.53849 -0.48386,0.66145 0,0.12297 1.02867,0.22358 2.28594,0.22358 1.86679,0 2.35038,-0.0849 2.63742,-0.46302 z m -23.23179,-1.96338 c 2.11257,-2.35934 5.14421,-3.52682 8.67683,-3.3414 3.49414,0.18339 6.56043,1.95091 8.62899,4.97405 l 0.4526,0.66146 0.51805,-0.65295 c 0.59831,-0.75408 0.49475,-1.05976 -0.96598,-2.85144 -2.00774,-2.46261 -5.92315,-4.30082 -9.1608,-4.30082 -3.37106,0 -6.02286,1.08626 -8.53073,3.49444 -2.03171,1.95094 -2.49329,2.90062 -1.78841,3.67951 l 0.494,0.54586 0.4008,-0.61638 c 0.22043,-0.33902 0.79403,-1.05556 1.27465,-1.59233 z m 23.57347,0.25998 c -0.53112,-0.99241 -2.61446,-3.06704 -3.92336,-3.90696 -1.90879,-1.22486 -4.09376,-1.87888 -6.76563,-2.02513 l -2.38125,-0.13034 1.33219,0.50281 c 2.85292,1.07676 4.90884,2.58723 6.32987,4.65051 l 1.02485,1.48803 h 2.34658 c 2.33182,0 2.34463,-0.004 2.03675,-0.57892 z m 28.22594,35.47556 c -3.1482,-0.45911 -6.43011,-2.50555 -8.37589,-5.2228 l -1.03867,-1.45049 0.62516,-0.81636 c 0.34384,-0.44899 0.8709,-0.94198 1.17126,-1.09551 0.44939,-0.22973 2.75886,-3.34185 8.44728,-11.38315 l 0.57609,-0.81437 -4.21983,-5.90855 c -2.32091,-3.2497 -4.47404,-6.03839 -4.78474,-6.19708 -0.31069,-0.1587 -0.84306,-0.65179 -1.18303,-1.09577 l -0.61812,-0.80724 0.90316,-1.3411 c 1.87,-2.7768 5.28484,-4.87402 8.74073,-5.36811 2.80077,-0.40043 7.71782,-0.33799 9.47748,0.12034 2.78382,0.72509 5.04946,2.17253 6.99283,4.46748 1.56354,1.8464 1.43148,3.23029 -0.40168,4.20916 -0.33007,0.17625 -2.4315,2.93983 -4.66985,6.14128 l -4.06972,5.82084 0.85126,1.19063 c 0.4682,0.65485 2.37532,3.36352 4.23804,6.01927 1.86272,2.65576 3.53056,4.82865 3.70631,4.82865 0.61182,0 1.47012,1.21019 1.47012,2.07286 0,0.69991 -0.33522,1.18365 -1.91823,2.76807 -3.28018,3.28312 -5.66723,4.17484 -11.0358,4.12264 -1.82481,-0.0178 -4.02269,-0.13505 -4.88416,-0.26069 z m 9.90069,-0.67832 c 2.34627,-0.64265 4.38619,-1.88456 6.09369,-3.70989 0.86857,-0.92851 1.57923,-1.8029 1.57923,-1.9431 0,-0.1441 -1.00638,-0.2547 -2.31511,-0.25443 l -2.3151,5.3e-4 -0.75294,1.1918 c -1.3363,2.11517 -3.54145,3.76858 -6.78769,5.08941 -1.03485,0.42106 2.74144,0.10684 4.49792,-0.37426 z m -5.21646,0.0257 c 0.88374,-0.22899 2.20423,-0.7191 2.93441,-1.08911 1.41917,-0.71915 4.02009,-3.17673 4.64677,-4.39068 0.351,-0.67992 0.3346,-0.78201 -0.21258,-1.32291 -0.58765,-0.58092 -0.59561,-0.58142 -0.89248,-0.057 -0.74987,1.32472 -3.0367,3.36744 -4.67001,4.17152 -1.64023,0.80748 -1.90177,0.85556 -4.65388,0.85556 -2.68724,0 -3.03982,-0.0607 -4.49475,-0.77398 -1.46595,-0.71867 -4.08062,-3.02207 -4.82785,-4.2531 -0.31689,-0.52207 -0.32841,-0.52081 -0.85853,0.0938 -0.51893,0.60161 -0.52152,0.65134 -0.0757,1.45237 0.80011,1.43748 3.16075,3.54849 4.89218,4.37482 2.79099,1.33202 5.49972,1.64164 8.21239,0.93871 z m -1.13354,-2.07357 c 0,-0.0598 -0.56555,-0.38007 -1.25677,-0.71175 -0.69123,-0.33168 -2.01635,-1.35875 -2.94472,-2.28236 l -1.68794,-1.6793 -2.26576,0.0759 -2.26576,0.076 0.91099,1.03722 c 1.92517,2.19192 4.94674,3.52057 8.1209,3.57094 0.76398,0.0121 1.38906,-0.0269 1.38906,-0.0866 z m 3.83559,-1.47828 c 1.28079,-0.79157 3.36933,-3.12463 3.14166,-3.50949 -0.26495,-0.44789 -5.68354,-8.21442 -5.9091,-8.46958 -0.0995,-0.11251 -1.5748,1.76365 -3.27854,4.16925 -2.58251,3.64641 -3.05318,4.45699 -2.83006,4.87391 0.48104,0.89882 2.75855,2.72616 4.33708,3.4798 1.4704,0.70203 1.59769,0.71954 2.6168,0.35998 0.58917,-0.20787 1.45414,-0.61462 1.92216,-0.90387 z m 10.18733,-2.82397 c 0,-0.0977 -0.19705,-0.39534 -0.43789,-0.66146 -0.36255,-0.40062 -0.84839,-0.48385 -2.82424,-0.48385 h -2.38637 l 0.62141,0.66145 c 0.56633,0.60284 0.81665,0.66146 2.82425,0.66146 1.21156,0 2.20284,-0.0799 2.20284,-0.1776 z m -16.51715,-5.17438 3.19432,-4.54623 -1.16783,-1.6706 -1.16784,-1.67061 -0.46999,0.60045 c -0.80351,1.02651 -8.21318,11.60949 -8.21318,11.73061 0,0.063 1.0418,0.11191 2.3151,0.10862 l 2.31511,-0.006 z m 14.34595,3.37206 c 0.0428,-0.0395 -1.78654,-2.70578 -4.06514,-5.9251 l -4.14291,-5.85332 h -2.36904 -2.36903 l 1.27481,1.80089 c 0.70114,0.99049 2.61924,3.69982 4.26245,6.02073 l 2.98766,4.21985 2.17172,-0.0956 c 1.19444,-0.0526 2.20671,-0.12794 2.24948,-0.16742 z m -4.07538,-17.92998 4.16178,-5.88698 -2.19875,-0.15899 c -1.20931,-0.0874 -2.27461,-0.0874 -2.36733,0 -0.1688,0.15919 -7.89995,11.02417 -8.26685,11.61783 -0.14508,0.23474 0.40518,0.31512 2.1573,0.31512 h 2.35206 z m -8.31957,3.7598 c 0.70834,-1.00981 1.05979,-1.75739 0.95479,-2.03099 -0.0914,-0.23814 -1.50128,-2.31459 -3.13312,-4.61435 l -2.96698,-4.18137 -2.34109,-0.005 -2.34108,-0.005 0.489,0.76829 c 0.48775,0.76632 8.13695,11.66163 8.18973,11.66523 0.0153,0.001 0.53223,-0.71721 1.14875,-1.59611 z m 4.62037,-6.60434 c 2.24719,-3.21319 2.97155,-4.44081 2.80074,-4.74662 -0.73922,-1.32344 -2.93272,-3.04935 -4.75593,-3.74211 l -1.3489,-0.51255 -1.45646,0.68902 c -1.56142,0.73867 -4.68273,3.43239 -4.55392,3.93007 0.10108,0.39054 6.10331,8.89634 6.20562,8.79403 0.0428,-0.0428 1.44173,-2.02808 3.10885,-4.41184 z m 9.5402,-4.29921 0.41819,-0.59532 -1.92142,-0.079 c -2.32343,-0.0955 -2.88493,0.0281 -3.31896,0.73064 -0.32551,0.52692 -0.27994,0.53899 2.03552,0.53899 2.15592,0 2.40602,-0.0534 2.78667,-0.59531 z m -24.36286,-0.40521 c 0.60806,-1.17586 2.95986,-3.20906 4.60241,-3.97892 1.35396,-0.63461 1.8191,-0.7091 4.4275,-0.7091 2.74434,0 3.0152,0.0495 4.63694,0.84723 1.70634,0.83935 4.34052,3.16924 4.63611,4.10055 0.2073,0.65314 0.55341,0.5968 1.0572,-0.17209 0.40475,-0.61772 0.38666,-0.70365 -0.38377,-1.82344 -1.6289,-2.36752 -4.43056,-4.28166 -7.20211,-4.92061 -4.68827,-1.08082 -10.04572,0.9992 -12.63251,4.90453 -0.76307,1.15203 -0.78486,1.25493 -0.39249,1.85376 0.53691,0.81943 0.78472,0.79924 1.25072,-0.10191 z m 6.23458,-1.18229 c 0.69901,-0.76399 2.02969,-1.846 2.95708,-2.40447 l 1.68615,-1.0154 -2.11667,0.12035 c -2.90202,0.16501 -4.78997,0.93492 -6.75602,2.75514 -0.86809,0.8037 -1.57835,1.56751 -1.57835,1.69736 0,0.12984 1.0208,0.23608 2.26844,0.23608 h 2.26845 z m 18.53386,0.35954 c 0,-0.39086 -1.91245,-2.57401 -3.04271,-3.4734 -2.33535,-1.85833 -5.42545,-2.899 -8.59896,-2.89592 l -1.71979,0.002 1.76513,0.62305 c 2.62133,0.92526 4.73223,2.54157 6.34178,4.85589 l 0.78205,1.12448 h 2.23625 c 1.22993,0 2.23625,-0.1061 2.23625,-0.23577 z"
       id="path877"
       sodipodi:nodetypes="ccccsscsssscsssssscsscscscscccssscccsssssscssssscssscsscsssscssssscscssssssscsccscssscscssssssccccccssscccccccccscscccccscccccsssscsccccssccssccscssscscscscsssccccccccsscccccccscccccccssscscccsscscsscssscssccscsssssscsssssssccssscssssssscssssssssssssscssssscccsssssscsccssccssssssscsssscssssscccsssssscsscssssssssscscssscsssssssscssssscsscsscsscscsscssscssscsssssscssssscscssccssccsssssssssscsssssscccssssssssssssssscsssccccsssccsscccsscsssccccsscccsscccscccssscssssscssssssssssssssssscsssscsssccsscsss" />
    <path
       style="fill:none;stroke:#000000;stroke-width:0.529167;stroke-linecap:butt;stroke-linejoin:miter;stroke-miterlimit:4;stroke-dasharray:none;stroke-opacity:1;marker-start:url(#marker1323)"
       d="m 29.802272,132.9609 -2.463056,-2.0284"
       id="path933" />
    <path
       style="fill:none;stroke:#000000;stroke-width:0.529167;stroke-linecap:butt;stroke-linejoin:miter;stroke-miterlimit:4;stroke-dasharray:none;stroke-opacity:1;marker-start:url(#Arrow2Sstart)"
       d="m 33.138385,135.71746 2.361379,1.92672"
       id="path935" />
    <path
       style="fill:none;stroke:#000000;stroke-width:0.52916667;stroke-linecap:butt;stroke-linejoin:miter;stroke-opacity:1;stroke-miterlimit:4;stroke-dasharray:0.52916667,0.52916667;stroke-dashoffset:0"
       d="m 32.435903,141.31534 6.66251,1.57796"
       id="path1449" />
    <path
       style="fill:none;stroke:#000000;stroke-width:0.529167;stroke-linecap:butt;stroke-linejoin:miter;stroke-miterlimit:4;stroke-dasharray:none;stroke-opacity:1;marker-start:url(#marker1683);marker-end:url(#Arrow1Send)"
       d="m 12.101402,146.32958 1.669158,4.59019"
       id="path1673"
       sodipodi:nodetypes="cc" />
  </g>
</svg>
