<?xml version="1.0" encoding="UTF-8" standalone="no"?>
<svg
   xmlns:dc="http://purl.org/dc/elements/1.1/"
   xmlns:cc="http://creativecommons.org/ns#"
   xmlns:rdf="http://www.w3.org/1999/02/22-rdf-syntax-ns#"
   xmlns:svg="http://www.w3.org/2000/svg"
   xmlns="http://www.w3.org/2000/svg"
   xmlns:sodipodi="http://sodipodi.sourceforge.net/DTD/sodipodi-0.dtd"
   xmlns:inkscape="http://www.inkscape.org/namespaces/inkscape"
   version="1.1"
   id="svg833"
   xml:space="preserve"
   width="545.76575"
   height="396.00729"
   viewBox="0 0 545.76575 396.00729"
   sodipodi:docname="dsc-curve.svg"
   inkscape:version="1.0.2 (e86c8708, 2021-01-15)"><metadata
     id="metadata839"><rdf:RDF><cc:Work
         rdf:about=""><dc:format>image/svg+xml</dc:format><dc:type
           rdf:resource="http://purl.org/dc/dcmitype/StillImage" /><dc:title></dc:title></cc:Work></rdf:RDF></metadata><defs
     id="defs837" /><sodipodi:namedview
     pagecolor="#ffffff"
     bordercolor="#666666"
     borderopacity="1"
     objecttolerance="10"
     gridtolerance="10"
     guidetolerance="10"
     inkscape:pageopacity="0"
     inkscape:pageshadow="2"
     inkscape:window-width="3440"
     inkscape:window-height="1387"
     id="namedview835"
     showgrid="false"
     inkscape:zoom="1.304589"
     inkscape:cx="272.88287"
     inkscape:cy="198.00365"
     inkscape:window-x="0"
     inkscape:window-y="25"
     inkscape:window-maximized="1"
     inkscape:current-layer="g843" /><g
     id="g841"
     inkscape:groupmode="layer"
     inkscape:label="dsc-curve"
     transform="matrix(1.3333333,0,0,1.3333333,0,5.900182e-6)"><g
       id="g843"><g
         id="g845"><path
           d="M -75.000002,110.473 H 225.07 c 12.797,-0.496 15.16,-13.993 15.16,-13.993 l 19.825,-83.964 c 4.074,-14.989 21.527,-15.551 24.488,0 l 16.328,83.964 c 1.18,3.774 1.117,14.125 12.828,13.993 h 170.62476"
           style="fill:none;stroke:#c4000c;stroke-width:2.12598;stroke-linecap:butt;stroke-linejoin:miter;stroke-miterlimit:4;stroke-dasharray:none;stroke-opacity:1"
           id="path847"
           sodipodi:nodetypes="cccccccc" /></g><g
         id="g849"
         transform="matrix(-1,0.0193056,-0.0193056,-1,0,0)"><path
           d="m -218.76,-112.204 -6.97,-2.56 6.968,-2.561 c -1.111,1.51 -1.105,3.58 0.002,5.121 z"
           style="fill:#c4000c;fill-opacity:1;fill-rule:evenodd;stroke:#c4000c;stroke-width:0.398548;stroke-linecap:butt;stroke-linejoin:round;stroke-miterlimit:4;stroke-dasharray:none;stroke-opacity:1"
           id="path851" /></g><g
         id="g853"
         transform="matrix(-0.20538,1,-1,-0.20538,0,0)"><path
           d="m 49.244,-247 -6.828,-2.508 6.828,-2.512 c -1.09,1.482 -1.084,3.508 0,5.02 z"
           style="fill:#c4000c;fill-opacity:1;fill-rule:evenodd;stroke:#c4000c;stroke-width:0.390472;stroke-linecap:butt;stroke-linejoin:round;stroke-miterlimit:4;stroke-dasharray:none;stroke-opacity:1"
           id="path855" /></g><g
         id="g857"
         transform="matrix(-0.253957,1,-1,-0.253957,0,0)"><path
           d="m -46.315,-244.793 -6.756,-2.483 6.757,-2.482 c -1.081,1.466 -1.076,3.473 -10e-4,4.965 z"
           style="fill:#c4000c;fill-opacity:1;fill-rule:evenodd;stroke:#c4000c;stroke-width:0.386358;stroke-linecap:butt;stroke-linejoin:round;stroke-miterlimit:4;stroke-dasharray:none;stroke-opacity:1"
           id="path859" /></g><g
         id="g861"
         transform="matrix(-0.192512,-1,1,-0.192512,0,0)"><path
           d="m -60.868,274.579 -6.843,-2.517 6.843,-2.514 c -1.094,1.484 -1.087,3.517 0,5.031 z"
           style="fill:#c4000c;fill-opacity:1;fill-rule:evenodd;stroke:#c4000c;stroke-width:0.391435;stroke-linecap:butt;stroke-linejoin:round;stroke-miterlimit:4;stroke-dasharray:none;stroke-opacity:1"
           id="path863" /></g><g
         id="g865"
         transform="matrix(-0.252598,-1,1,-0.252598,0,0)"><path
           d="m -158.167,262.41 -6.756,-2.483 6.757,-2.485 c -1.078,1.466 -1.072,3.471 -0.001,4.968 z"
           style="fill:#c4000c;fill-opacity:1;fill-rule:evenodd;stroke:#c4000c;stroke-width:0.386483;stroke-linecap:butt;stroke-linejoin:round;stroke-miterlimit:4;stroke-dasharray:none;stroke-opacity:1"
           id="path867" /></g><g
         id="g869"
         transform="matrix(-1,0.00568009,-0.00568009,-1,0,0)"><path
           d="m -308.967,-109.677 -6.97,-2.563 6.968,-2.562 c -1.11,1.513 -1.106,3.584 0.002,5.125 z"
           style="fill:#c4000c;fill-opacity:1;fill-rule:evenodd;stroke:#c4000c;stroke-width:0.398616;stroke-linecap:butt;stroke-linejoin:round;stroke-miterlimit:4;stroke-dasharray:none;stroke-opacity:1"
           id="path871" /></g><g
         id="g873"><path
           d="M 484.32376,186.531 184.254,186.535 c -12.797,0.492 -15.16,13.992 -15.16,13.992 l -19.824,83.961 c -4.075,14.989 -21.528,15.555 -24.489,0 l -16.328,-83.965 c -1.18,-3.773 -1.117,-14.125 -12.828,-13.988 H -75.000002"
           style="fill:none;stroke:#0072bd;stroke-width:2.12598;stroke-linecap:butt;stroke-linejoin:miter;stroke-miterlimit:4;stroke-dasharray:none;stroke-opacity:1"
           id="path875"
           sodipodi:nodetypes="cccccccc" /></g><g
         id="g877"
         transform="matrix(1,-0.0193056,0.0193056,1,0,0)"><path
           d="m 184.68,192.593 -6.97,-2.565 6.968,-2.56 c -1.112,1.513 -1.105,3.584 0.002,5.125 z"
           style="fill:#0072bd;fill-opacity:1;fill-rule:evenodd;stroke:#0072bd;stroke-width:0.398548;stroke-linecap:butt;stroke-linejoin:round;stroke-miterlimit:4;stroke-dasharray:none;stroke-opacity:1"
           id="path879" /></g><g
         id="g881"
         transform="matrix(0.20538,-1,1,0.20538,0,0)"><path
           d="m -155.078,204.288 -6.824,-2.509 6.824,-2.511 c -1.09,1.482 -1.084,3.508 0,5.02 z"
           style="fill:#0072bd;fill-opacity:1;fill-rule:evenodd;stroke:#0072bd;stroke-width:0.390472;stroke-linecap:butt;stroke-linejoin:round;stroke-miterlimit:4;stroke-dasharray:none;stroke-opacity:1"
           id="path883" /></g><g
         id="g885"
         transform="matrix(0.253957,-1,1,0.253957,0,0)"><path
           d="m -227.676,210.589 -6.752,-2.484 6.753,-2.481 c -1.077,1.465 -1.071,3.472 -10e-4,4.965 z"
           style="fill:#0072bd;fill-opacity:1;fill-rule:evenodd;stroke:#0072bd;stroke-width:0.386358;stroke-linecap:butt;stroke-linejoin:round;stroke-miterlimit:4;stroke-dasharray:none;stroke-opacity:1"
           id="path887" /></g><g
         id="g889"
         transform="matrix(0.192512,1,-1,0.192512,0,0)"><path
           d="m 301.506,-64.984 -6.843,-2.516 6.843,-2.515 c -1.094,1.485 -1.087,3.517 0,5.031 z"
           style="fill:#0072bd;fill-opacity:1;fill-rule:evenodd;stroke:#0072bd;stroke-width:0.391435;stroke-linecap:butt;stroke-linejoin:round;stroke-miterlimit:4;stroke-dasharray:none;stroke-opacity:1"
           id="path891" /></g><g
         id="g893"
         transform="matrix(0.252598,1,-1,0.252598,0,0)"><path
           d="m 218.219,-51.839 -6.755,-2.484 6.757,-2.485 c -1.081,1.466 -1.076,3.471 -0.002,4.969 z"
           style="fill:#0072bd;fill-opacity:1;fill-rule:evenodd;stroke:#0072bd;stroke-width:0.386483;stroke-linecap:butt;stroke-linejoin:round;stroke-miterlimit:4;stroke-dasharray:none;stroke-opacity:1"
           id="path895" /></g><g
         id="g897"
         transform="matrix(1,-0.00568009,0.00568009,1,0,0)"><path
           d="m 98.657,189.642 -6.97,-2.563 6.968,-2.562 c -1.11,1.514 -1.106,3.584 0.002,5.125 z"
           style="fill:#0072bd;fill-opacity:1;fill-rule:evenodd;stroke:#0072bd;stroke-width:0.398616;stroke-linecap:butt;stroke-linejoin:round;stroke-miterlimit:4;stroke-dasharray:none;stroke-opacity:1"
           id="path899" /></g><g
         id="g901"><path
           d="m 226.156,110.688 82.649,-0.922"
           style="fill:none;stroke:#000000;stroke-width:2.12598;stroke-linecap:butt;stroke-linejoin:miter;stroke-miterlimit:4;stroke-dasharray:4.25197, 4.25197;stroke-dashoffset:0;stroke-opacity:1"
           id="path903" /></g><g
         id="g905"><path
           d="m 100.398,186.965 82.653,-0.926"
           style="fill:none;stroke:#000000;stroke-width:2.12598;stroke-linecap:butt;stroke-linejoin:miter;stroke-miterlimit:4;stroke-dasharray:4.25197, 4.25197;stroke-dashoffset:0;stroke-opacity:1"
           id="path907" /></g><g
         id="g909"><path
           d="M 244.266,80.504 231.75,127.539"
           style="fill:none;stroke:#000000;stroke-width:2.12598;stroke-linecap:butt;stroke-linejoin:miter;stroke-miterlimit:4;stroke-dasharray:4.25197, 4.25197;stroke-dashoffset:0;stroke-opacity:1"
           id="path911" /></g><g
         id="g913"><path
           d="m 297.785,80.504 9.75,47.035"
           style="fill:none;stroke:#000000;stroke-width:2.12598;stroke-linecap:butt;stroke-linejoin:miter;stroke-miterlimit:4;stroke-dasharray:4.25197, 4.25197;stroke-dashoffset:0;stroke-opacity:1"
           id="path915" /></g><g
         id="g917"><path
           d="m 102.336,170.648 9.746,47.036"
           style="fill:none;stroke:#000000;stroke-width:2.12598;stroke-linecap:butt;stroke-linejoin:miter;stroke-miterlimit:4;stroke-dasharray:4.25197, 4.25197;stroke-dashoffset:0;stroke-opacity:1"
           id="path919" /></g><g
         id="g921"><path
           d="m 177.312,170.676 -12.511,47.035"
           style="fill:none;stroke:#000000;stroke-width:2.12598;stroke-linecap:butt;stroke-linejoin:miter;stroke-miterlimit:4;stroke-dasharray:4.25197, 4.25197;stroke-dashoffset:0;stroke-opacity:1"
           id="path923" /></g></g></g></svg>
